<?xml version="1.0" encoding="utf-8"?>
<!-- Generator: Adobe Illustrator 22.0.1, SVG Export Plug-In . SVG Version: 6.00 Build 0)  -->
<svg version="1.1" id="图层_1" xmlns="http://www.w3.org/2000/svg" xmlns:xlink="http://www.w3.org/1999/xlink" x="0px" y="0px"
	 viewBox="0 0 100 100" style="enable-background:new 0 0 100 100;" xml:space="preserve">
<style type="text/css">
	.st0{fill-rule:evenodd;clip-rule:evenodd;fill:#231815;}
</style>
<path class="st0" d="M37.8,100H27c-1.7,0-3.2-1.4-3.2-3.2V3.2C23.9,1.4,25.3,0,27,0l10.7,0c1.8,0,3.2,1.4,3.2,3.2v93.6
	C40.9,98.6,39.5,100,37.8,100L37.8,100z"/>
<path class="st0" d="M71.9,100H61.2c-1.7,0-3.2-1.4-3.2-3.2V3.2C58,1.4,59.4,0,61.2,0l10.7,0c1.8,0,3.2,1.4,3.2,3.2v93.6
	C75.1,98.6,73.6,100,71.9,100L71.9,100z"/>
</svg>
