<?xml version="1.0" encoding="utf-8"?>
<!-- Generator: Adobe Illustrator 22.0.1, SVG Export Plug-In . SVG Version: 6.00 Build 0)  -->
<svg version="1.1" id="图层_1" xmlns="http://www.w3.org/2000/svg" xmlns:xlink="http://www.w3.org/1999/xlink" x="0px" y="0px"
	 viewBox="0 0 100 100" style="enable-background:new 0 0 100 100;" xml:space="preserve">
<style type="text/css">
	.st0{fill-rule:evenodd;clip-rule:evenodd;fill:#231815;}
</style>
<path class="st0" d="M28,99l8-6.6l31.3-25.9l14.6-12c4.2-2.4,4.2-6.3,0-8.8L67.3,33.5L38.9,10L28,1c-1.2-0.7-2.4-1-3.4-1
	c-2.5,0-4.2,2-4.2,5.4l0,4.6l0,23.5l0,7.7c0,4.8,0,12.7,0,17.5l0,7.7l0,25.9l0,2.2c0,3.4,1.7,5.4,4.2,5.4C25.6,100,26.8,99.7,28,99
	L28,99z"/>
</svg>
