<?xml version="1.0" encoding="utf-8"?>
<!-- Generator: Adobe Illustrator 22.0.1, SVG Export Plug-In . SVG Version: 6.00 Build 0)  -->
<svg version="1.1" id="图层_1" xmlns="http://www.w3.org/2000/svg" xmlns:xlink="http://www.w3.org/1999/xlink" x="0px" y="0px"
	 viewBox="0 0 100 100" style="enable-background:new 0 0 100 100;" xml:space="preserve">
<style type="text/css">
	.st0{fill:#231815;}
</style>
<path class="st0" d="M18.5,87.7L10.8,80c-1.2-1.2-1.3-3.3,0-4.5L77,9.3c1.3-1.2,3.3-1.2,4.5,0l7.6,7.6c1.3,1.3,1.3,3.3,0,4.5
	L22.9,87.6C21.7,88.9,19.7,88.9,18.5,87.7L18.5,87.7z"/>
<path class="st0" d="M89.2,80.1l-7.6,7.6c-1.2,1.2-3.3,1.3-4.5,0L10.9,21.5c-1.3-1.3-1.3-3.3,0-4.5l7.6-7.6c1.3-1.3,3.3-1.3,4.5,0
	l66.2,66.2C90.4,76.8,90.4,78.9,89.2,80.1L89.2,80.1z"/>
</svg>
