<?xml version="1.0" encoding="utf-8"?>
<!-- Generator: Adobe Illustrator 22.0.1, SVG Export Plug-In . SVG Version: 6.00 Build 0)  -->
<svg version="1.1" id="图层_1" xmlns="http://www.w3.org/2000/svg" xmlns:xlink="http://www.w3.org/1999/xlink" x="0px" y="0px"
	 viewBox="0 0 100 100" style="enable-background:new 0 0 100 100;" xml:space="preserve">
<style type="text/css">
	.st0{fill-rule:evenodd;clip-rule:evenodd;fill:#231815;}
</style>
<path class="st0" d="M57.4,99l-7.9-6.6l-31-25.6L4,54.9c-4.1-2.4-4.1-6.3,0-8.7l14.5-12l28.1-23.3L57.3,2c1.2-0.7,2.3-1,3.3-1
	c2.5,0,4.2,2,4.2,5.3l0,4.6l0,23.3l0,7.6c0,4.8,0,12.6,0,17.3l0,7.6l0,25.6l0,2.2c0,3.4-1.7,5.4-4.2,5.4C59.7,100,58.6,99.7,57.4,99
	L57.4,99z"/>
<path class="st0" d="M82.6,100h10.6c1.7,0,3.1-1.4,3.1-3.1l0-92.7c0-1.7-1.4-3.1-3.1-3.1L82.6,1c-1.7,0-3.1,1.4-3.1,3.1l0,92.7
	C79.4,98.6,80.8,100,82.6,100L82.6,100z"/>
</svg>
