<?xml version="1.0" encoding="utf-8"?>
<!-- Generator: Adobe Illustrator 22.0.1, SVG Export Plug-In . SVG Version: 6.00 Build 0)  -->
<svg version="1.1" id="图层_1" xmlns="http://www.w3.org/2000/svg" xmlns:xlink="http://www.w3.org/1999/xlink" x="0px" y="0px"
	 viewBox="0 0 100 100" style="enable-background:new 0 0 100 100;" xml:space="preserve">
<style type="text/css">
	.st0{fill:#231815;}
</style>
<path class="st0" d="M0,55.5V44.7c0-1.7,1.4-3.2,3.2-3.2h93.6c1.8,0.1,3.2,1.5,3.2,3.2v10.7c0,1.8-1.4,3.2-3.2,3.2H3.2
	C1.4,58.6,0,57.2,0,55.5L0,55.5z"/>
<path class="st0" d="M0,21.3V10.5c0-1.7,1.4-3.2,3.2-3.2h93.6c1.8,0.1,3.2,1.5,3.2,3.2v10.7c0,1.8-1.4,3.2-3.2,3.2H3.2
	C1.4,24.4,0,23,0,21.3L0,21.3z"/>
<path class="st0" d="M0,89.6V78.9c0-1.7,1.4-3.2,3.2-3.2h93.6c1.8,0,3.2,1.4,3.2,3.2v10.7c0,1.8-1.4,3.2-3.2,3.2H3.2
	C1.4,92.8,0,91.3,0,89.6L0,89.6z"/>
</svg>
