<?xml version="1.0" encoding="utf-8"?>
<!-- Generator: Adobe Illustrator 22.0.1, SVG Export Plug-In . SVG Version: 6.00 Build 0)  -->
<svg version="1.1" id="图层_1" xmlns="http://www.w3.org/2000/svg" xmlns:xlink="http://www.w3.org/1999/xlink" x="0px" y="0px"
	 viewBox="0 0 100 100" style="enable-background:new 0 0 100 100;" xml:space="preserve">
<style type="text/css">
	.st0{fill:#231815;}
</style>
<path class="st0" d="M94.1,61.2c1.4-1.4,1.3-3.9-0.3-5.5l-3.9-3.9c-1.6-1.6-1.6-4.2,0-5.7l3.9-3.9c1.6-1.6,1.7-4,0.3-5.5
	c-1.4-1.4-3.9-1.3-5.5,0.3l-3.9,3.9c-1.6,1.6-4.2,1.6-5.7,0l-4-4c-1.6-1.6-4-1.7-5.5-0.3c-1.4,1.4-1.3,3.9,0.3,5.5l3.9,3.9
	c1.6,1.6,1.6,4.2,0,5.7l-3.9,3.9c-1.6,1.6-1.7,4-0.3,5.5c1.4,1.4,3.9,1.3,5.5-0.3l3.9-3.9c1.6-1.6,4.2-1.6,5.7,0l3.9,3.9
	C90.2,62.4,92.6,62.6,94.1,61.2L94.1,61.2z"/>
<polygon class="st0" points="25.7,27.7 3,27.7 3,70.8 25.7,70.8 25.7,70.1 57.5,92.8 57.5,48.9 57.5,5 "/>
</svg>
