<?xml version="1.0" encoding="utf-8"?>
<!-- Generator: Adobe Illustrator 22.0.1, SVG Export Plug-In . SVG Version: 6.00 Build 0)  -->
<svg version="1.1" id="图层_1" xmlns="http://www.w3.org/2000/svg" xmlns:xlink="http://www.w3.org/1999/xlink" x="0px" y="0px"
	 viewBox="0 0 100 100" style="enable-background:new 0 0 100 100;" xml:space="preserve">
<style type="text/css">
	.st0{fill-rule:evenodd;clip-rule:evenodd;fill:#231815;}
</style>
<path class="st0" d="M40.5,99l8-6.6l31.3-25.9l14.6-12c4.2-2.4,4.2-6.3,0-8.8L79.8,33.5L51.4,10L40.5,1c-1.2-0.7-2.4-1-3.4-1
	C34.7,0,33,2,33,5.4l0,4.6l0,23.5v7.7c0,4.8,0,12.7,0,17.5v7.7l0,25.9v2.2c0,3.4,1.7,5.4,4.2,5.4C38.1,100,39.3,99.7,40.5,99
	L40.5,99z"/>
<path class="st0" d="M15,100H4.3c-1.7,0-3.2-1.4-3.2-3.2V3.2C1.2,1.4,2.6,0,4.3,0L15,0c1.8,0,3.2,1.4,3.2,3.2v93.6
	C18.2,98.6,16.8,100,15,100L15,100z"/>
</svg>
