<?xml version="1.0" encoding="utf-8"?>
<!-- Generator: Adobe Illustrator 22.0.1, SVG Export Plug-In . SVG Version: 6.00 Build 0)  -->
<svg version="1.1" id="图层_1" xmlns="http://www.w3.org/2000/svg" xmlns:xlink="http://www.w3.org/1999/xlink" x="0px" y="0px"
	 viewBox="0 0 100 100" style="enable-background:new 0 0 100 100;" xml:space="preserve">
<style type="text/css">
	.st0{fill-rule:evenodd;clip-rule:evenodd;fill:#231815;}
</style>
<path class="st0" d="M84.1,57c0-0.4,0-0.8,0-1.1c0-9.3,0-20.9,0-30.2c0-3.1-1.3-4.1-4.3-3.1C67.9,26.3,55.9,30,44,33.8
	c-1.8,0.6-3.4,1.6-4.2,3.5c-0.3,0.7-0.4,1.5-0.4,2.3c0,11.5-0.1,25.5,0,37c0.1,7.5-3.4,12.7-9.8,16.1c-5.3,2.8-11,3.5-16.8,1.5
	c-4.2-1.4-7.2-4.2-8-8.8c-0.6-3.3,0.4-6.4,2.2-9.1c3.4-5.1,8.3-8,14.3-9.1c3-0.6,6-0.7,9,0.2c0.5,0.2,1,0.4,1.7,0.6
	c0-0.5,0-0.8,0-1.2c0-13.7,0.1-22.6,0-36.4C32,24.6,36,19.2,41.3,17.6c13.6-4.1,27.2-8.3,40.8-12.5c1.5-0.5,3-0.6,4.5-0.2
	c2.5,0.7,4.2,2.5,4.6,5.1c0.1,0.8,0.2,1.6,0.2,2.3c0,19.3-0.1,33.8,0.1,53.1c0,6.2-2.4,10.8-7.4,14.2C78,84,71.3,85.2,64.2,82.9
	c-3.9-1.3-6.7-3.8-7.8-7.9c-1-3.7-0.1-7.1,1.9-10.1c3.4-5,8.2-7.8,14.1-8.8C77.2,55.2,78.7,55.4,84.1,57L84.1,57z"/>
</svg>
