<?xml version="1.0" encoding="utf-8"?>
<!-- Generator: Adobe Illustrator 22.0.1, SVG Export Plug-In . SVG Version: 6.00 Build 0)  -->
<svg version="1.1" id="图层_1" xmlns="http://www.w3.org/2000/svg" xmlns:xlink="http://www.w3.org/1999/xlink" x="0px" y="0px"
	 viewBox="0 0 100 100" style="enable-background:new 0 0 100 100;" xml:space="preserve">
<style type="text/css">
	.st0{fill:#231815;}
</style>
<path class="st0" d="M68.6,64.4c-1.7-1.7-1.7-4.5,0-6.2c5.1-5.1,5.1-13.3,0-18.4c-1.7-1.7-1.7-4.5,0-6.2s4.5-1.7,6.2,0
	c8.5,8.5,8.5,22.3,0,30.8C73.1,66.1,70.3,66.1,68.6,64.4L68.6,64.4z"/>
<path class="st0" d="M79.8,75.6c-1.7-1.7-1.7-4.5,0-6.2c11.3-11.3,11.3-29.6,0-40.8c-1.7-1.7-1.7-4.5,0-6.2s4.5-1.7,6.2,0
	c14.7,14.7,14.7,38.5,0,53.2C84.3,77.3,81.5,77.3,79.8,75.6L79.8,75.6z"/>
<polygon class="st0" points="23.7,27.8 1.2,27.8 1.2,70.9 23.7,70.9 23.7,70.2 55.5,92.7 55.5,49 55.5,5.2 "/>
</svg>
